<svg id="visual" viewBox="0 0 900 600" width="900" height="600" xmlns="http://www.w3.org/2000/svg"
     xmlns:xlink="http://www.w3.org/1999/xlink" version="1.1">
    <rect x="0" y="0" width="900" height="600" fill="#000000"></rect>
    <defs>
        <linearGradient id="grad1_0" x1="33.3%" y1="100%" x2="100%" y2="0%">
            <stop offset="20%" stop-color="#000000" stop-opacity="1"></stop>
            <stop offset="80%" stop-color="#000000" stop-opacity="1"></stop>
        </linearGradient>
    </defs>
    <defs>
        <linearGradient id="grad2_0" x1="0%" y1="100%" x2="66.7%" y2="0%">
            <stop offset="20%" stop-color="#000000" stop-opacity="1"></stop>
            <stop offset="80%" stop-color="#000000" stop-opacity="1"></stop>
        </linearGradient>
    </defs>
    <g transform="translate(900, 600)">
        <path
            d="M-243.4 0C-229.4 -28.9 -215.5 -57.9 -201.4 -83.4C-187.4 -109 -173.2 -131.1 -156.3 -156.3C-139.3 -181.5 -119.6 -209.8 -93.1 -224.8C-66.6 -239.9 -33.3 -241.6 0 -243.4L0 0Z"
            fill="#ff9900"></path>
    </g>
    <g transform="translate(0, 0)">
        <path
            d="M243.4 0C220.9 23.4 198.4 46.8 190.3 78.8C182.3 110.9 188.7 151.6 172.1 172.1C155.5 192.6 115.9 192.9 83.4 201.4C50.9 209.9 25.5 226.6 0 243.4L0 0Z"
            fill="#ff9900"></path>
    </g>
</svg>
