<svg id="visual" viewBox="0 0 300 300" width="300" height="300" xmlns="http://www.w3.org/2000/svg" xmlns:xlink="http://www.w3.org/1999/xlink" version="1.1"><g transform="translate(160.6972168175474 149.90641193284566)"><path d="M66.1 -112.1C84.6 -103.9 97.7 -83.9 106 -63.3C114.2 -42.7 117.6 -21.3 115.6 -1.2C113.6 19 106.2 38 97.7 58.4C89.3 78.7 79.9 100.4 63.5 109.7C47 118.9 23.5 115.7 -0.2 116.1C-24 116.6 -48 120.6 -65.9 112.2C-83.8 103.8 -95.6 82.9 -108.6 62.1C-121.6 41.3 -135.8 20.7 -137.4 -0.9C-139 -22.5 -127.9 -45 -114.4 -64.9C-100.9 -84.8 -85 -102.2 -65.5 -109.8C-46 -117.3 -23 -115.2 0.4 -115.9C23.8 -116.6 47.7 -120.2 66.1 -112.1" fill="#BB004B"></path></g></svg>