<svg id="visual" viewBox="0 0 900 600" width="900" height="600" xmlns="http://www.w3.org/2000/svg"
     xmlns:xlink="http://www.w3.org/1999/xlink" version="1.1">
    <rect x="0" y="0" width="900" height="600" fill="#000000"></rect>
    <defs>
        <linearGradient id="grad1_0" x1="33.3%" y1="100%" x2="100%" y2="0%">
            <stop offset="20%" stop-color="#000000" stop-opacity="1"></stop>
            <stop offset="80%" stop-color="#000000" stop-opacity="1"></stop>
        </linearGradient>
    </defs>
    <defs>
        <linearGradient id="grad2_0" x1="0%" y1="100%" x2="66.7%" y2="0%">
            <stop offset="20%" stop-color="#000000" stop-opacity="1"></stop>
            <stop offset="80%" stop-color="#000000" stop-opacity="1"></stop>
        </linearGradient>
    </defs>
    <g transform="translate(900, 600)">
        <path
            d="M-243.4 0C-224.8 -26.9 -206.1 -53.8 -193.1 -80C-180 -106.2 -172.5 -131.6 -157.7 -157.7C-142.8 -183.8 -120.6 -210.5 -93.1 -224.8C-65.6 -239.2 -32.8 -241.3 0 -243.4L0 0Z"
            fill="#ff9900"></path>
    </g>
    <g transform="translate(0, 0)">
        <path
            d="M243.4 0C239.8 34.7 236.1 69.3 216.2 89.5C196.2 109.8 159.9 115.6 139.3 139.3C118.7 163 113.7 204.5 93.1 224.8C72.5 245.2 36.3 244.3 0 243.4L0 0Z"
            fill="#ff9900"></path>
    </g>
</svg>
