<svg id="visual" viewBox="0 0 300 300" width="300" height="300" xmlns="http://www.w3.org/2000/svg" xmlns:xlink="http://www.w3.org/1999/xlink" version="1.1"><g transform="translate(153.87679309621194 153.51067690737034)"><path d="M66.2 -118.4C82.3 -105.3 89.7 -80.6 95.9 -59C102.2 -37.3 107.3 -18.7 108.1 0.4C108.8 19.5 105.1 39 97.2 57.9C89.4 76.8 77.4 95.1 60.6 107.7C43.7 120.3 21.8 127.1 1.4 124.7C-19 122.2 -38 110.5 -55.8 98.4C-73.5 86.3 -90 73.9 -100.2 57.5C-110.3 41 -114.2 20.5 -115.5 -0.7C-116.8 -22 -115.5 -44 -107.5 -64.1C-99.4 -84.1 -84.4 -102.3 -65.4 -113.8C-46.3 -125.3 -23.2 -130.1 0.9 -131.7C25 -133.3 50 -131.6 66.2 -118.4" fill="#BB004B"></path></g></svg>