<svg id="visual" viewBox="0 0 300 300" width="300" height="300" xmlns="http://www.w3.org/2000/svg"
     xmlns:xlink="http://www.w3.org/1999/xlink" version="1.1">
    <g transform="translate(159.99201789329112 136.3309171494722)">
        <path
            d="M55.5 -93.8C73.7 -85.7 91.4 -74.3 100.8 -58.2C110.2 -42 111.4 -21 109.4 -1.2C107.3 18.7 102.2 37.3 94.8 57.1C87.5 76.9 78 97.8 61.8 113.4C45.7 129.1 22.8 139.5 -0.7 140.7C-24.2 141.9 -48.3 133.7 -69.3 120.8C-90.2 107.9 -107.9 90.2 -118.3 69.3C-128.7 48.3 -131.9 24.2 -129.4 1.4C-127 -21.3 -118.9 -42.7 -107.7 -62.3C-96.6 -81.9 -82.3 -99.9 -63.8 -107.9C-45.3 -115.9 -22.7 -113.9 -2 -110.5C18.7 -107 37.3 -102 55.5 -93.8"
            fill="#BB004B"></path>
    </g>
</svg>
