<svg id="visual" viewBox="0 0 300 300" width="300" height="300" xmlns="http://www.w3.org/2000/svg"
     xmlns:xlink="http://www.w3.org/1999/xlink" version="1.1">
    <g transform="translate(138.8929129692944 138.30590696835833)">
        <path
            d="M59.3 -96.9C81 -90.2 105.4 -82.6 120.9 -66.3C136.3 -50 142.6 -25 137.6 -2.9C132.5 19.2 116.1 38.3 102.1 57.1C88.1 75.9 76.5 94.2 59.9 109.5C43.3 124.7 21.7 136.9 1.4 134.4C-18.8 132 -37.7 114.9 -57 101.2C-76.3 87.6 -96.2 77.3 -106.8 61C-117.4 44.7 -118.7 22.3 -115.6 1.8C-112.5 -18.8 -105 -37.5 -95.3 -55.4C-85.6 -73.3 -73.8 -90.3 -57.6 -100.1C-41.3 -109.9 -20.7 -112.5 -0.9 -110.9C18.8 -109.3 37.7 -103.6 59.3 -96.9"
            fill="#BB004B"></path>
    </g>
</svg>
