<svg id="visual" viewBox="0 0 300 300" width="300" height="300" xmlns="http://www.w3.org/2000/svg" xmlns:xlink="http://www.w3.org/1999/xlink" version="1.1"><g transform="translate(153.55527332453957 160.29777528041694)"><path d="M64.6 -111.9C85.5 -99.8 105.5 -86.1 116.1 -67.2C126.7 -48.3 127.9 -24.2 126.7 -0.7C125.5 22.8 122.1 45.7 112.6 66.5C103.1 87.2 87.5 106 67.8 113.3C48 120.6 24 116.6 2.4 112.4C-19.2 108.2 -38.3 103.9 -58.4 96.7C-78.5 89.6 -99.4 79.5 -113.7 62.9C-127.9 46.3 -135.5 23.2 -134 0.8C-132.6 -21.5 -122.1 -43 -110.8 -64.7C-99.5 -86.3 -87.2 -108.1 -68.6 -121.5C-50 -134.9 -25 -140 -1.6 -137.2C21.8 -134.5 43.7 -124 64.6 -111.9" fill="#BB004B"></path></g></svg>