<svg id="visual" viewBox="0 0 300 300" width="300" height="300" xmlns="http://www.w3.org/2000/svg"
     xmlns:xlink="http://www.w3.org/1999/xlink" version="1.1">
    <g transform="translate(155.55920347173736 148.48583619475795)">
        <path
            d="M55.3 -99.1C72.9 -85.6 89.3 -73.3 98.7 -57C108.1 -40.7 110.6 -20.3 109.2 -0.8C107.8 18.8 102.6 37.5 94.3 55.7C86 73.9 74.5 91.5 58.2 107.1C42 122.7 21 136.4 0.5 135.5C-20 134.6 -40 119.3 -61.2 106.5C-82.4 93.8 -104.9 83.6 -114 66.3C-123.2 49 -119.1 24.5 -119.2 -0.1C-119.4 -24.7 -123.8 -49.3 -116.4 -69.7C-108.9 -90 -89.7 -106.1 -68.4 -117.4C-47 -128.7 -23.5 -135.4 -2.3 -131.3C18.8 -127.3 37.7 -112.6 55.3 -99.1"
            fill="#BB004B"></path>
    </g>
</svg>
