<svg id="visual" viewBox="0 0 300 300" width="300" height="300" xmlns="http://www.w3.org/2000/svg"
     xmlns:xlink="http://www.w3.org/1999/xlink" version="1.1">
    <g transform="translate(142.6003859968037 144.7749589751274)">
        <path
            d="M54.5 -93.8C71.6 -84.6 86.9 -71.8 101 -55.6C115.1 -39.3 128.1 -19.7 132.2 2.4C136.4 24.5 131.9 49 120.9 70.7C109.9 92.3 92.4 111.1 71.2 117.7C50 124.3 25 118.6 0.4 117.9C-24.2 117.2 -48.3 121.4 -69.1 114.5C-89.9 107.7 -107.3 89.9 -114.6 68.9C-121.8 48 -118.9 24 -114.3 2.7C-109.7 -18.7 -103.3 -37.3 -94.2 -55.1C-85.2 -72.8 -73.3 -89.7 -57.2 -99.3C-41 -109 -20.5 -111.5 -0.9 -110C18.8 -108.5 37.5 -103 54.5 -93.8"
            fill="#BB004B"></path>
    </g>
</svg>
